<svg width="372" height="154" viewBox="0 0 372 154" fill="none" xmlns="http://www.w3.org/2000/svg">
<path d="M23.9446 43.8693C23.9446 43.8693 23.9418 43.8436 23.9304 43.8522C22.6716 44.6354 7.79096 53.7574 2.4254 69.2389C-2.08578 82.2569 0.987173 95.8502 1.46848 97.0464C1.47702 97.072 1.51405 97.0635 1.51405 97.0378C1.52829 95.5256 2.10927 80.2833 9.51113 67.0688C9.51113 67.0688 20.4188 48.127 23.9475 43.8693H23.9446Z" fill="url(#paint0_linear_8_2189)"/>
<path d="M35.2473 23.1486C34.8514 23.2996 21.2866 26.8567 14.161 36.8188C7.03536 46.781 5.44335 50.5574 6.50849 49.4353C7.77014 48.1025 17.6526 34.1645 27.6147 28.4572C27.6147 28.4572 38.2519 22.0066 35.2501 23.1486H35.2473Z" fill="url(#paint1_linear_8_2189)"/>
<path d="M32.4155 16.0966C32.4155 16.0966 45.7212 7.51572 57.2839 8.46124C68.8466 9.40677 72.4806 11.369 75.8982 13.8439C79.3157 16.3188 84.3338 21.26 84.3338 21.26C84.3338 21.26 84.9148 21.8039 83.6418 21.26C82.3687 20.716 71.9708 17.4437 71.9708 17.4437C71.9708 17.4437 69.026 16.2077 71.2446 17.9877C73.4632 19.7676 75.3542 22.3137 75.3542 22.3137C75.3542 22.3137 75.9722 23.2593 73.2467 21.3682C70.5212 19.4772 63.9396 16.7517 63.9396 16.7517C63.9396 16.7517 54.9087 12.8613 44.7073 14.0262C44.7073 14.0262 36.0893 14.6071 33.7284 16.0254C33.7284 16.0254 31.3532 17.1902 32.4183 16.0995L32.4155 16.0966Z" fill="url(#paint2_linear_8_2189)"/>
<path d="M101.372 24.3726C101.372 24.3726 99.965 24.2872 96.0149 23.7546C95.7899 23.8885 93.7108 20.8696 90.0968 17.1673C87.676 14.6867 84.2727 12.2546 80.9149 9.69708C77.7623 7.29625 73.7893 5.43084 70.2977 4.02679C68.5007 3.30341 66.4929 2.13575 65.7894 1.84525C65.7894 1.84525 62.5911 0.780116 70.3462 2.03892C78.1012 3.29771 84.9135 6.71811 88.7298 9.77113C92.546 12.8241 95.9636 17.5688 95.9636 17.5688C95.9636 17.5688 97.1825 19.6963 96.4905 17.4236C95.7984 15.1509 94.158 8.41265 88.875 4.68182C83.592 0.948146 82.6835 0.63487 82.6835 0.63487C82.6835 0.63487 80.6472 -0.529947 83.7002 0.295962C86.7533 1.12187 93.54 4.27172 96.5474 6.84058C99.552 9.40944 101.403 11.6622 104.06 18.2808C106.436 24.1961 106.834 25.0789 106.834 25.0789C106.834 25.0789 107.27 25.9874 106.179 25.0789C105.088 24.1704 104.288 24.1704 104.288 24.1704C104.288 24.1704 102.73 22.9828 101.924 21.9889C101.924 21.9889 101.004 20.7415 101.281 22.5699C101.281 22.5699 101.776 24.5093 101.366 24.3755L101.372 24.3726Z" fill="url(#paint3_linear_8_2189)"/>
<path d="M73.135 30.4453C73.135 30.4453 70.3725 29.8017 63.3437 26.6148C59.3281 24.7949 54.4609 22.5308 50.1036 22.4568C47.2442 22.4084 41.5768 22.8811 41.141 29.6678C40.7053 36.4545 44.5842 40.285 44.5842 40.285C44.5842 40.285 48.3179 44.6965 53.4072 45.0838C58.4965 45.4711 57.9383 44.9272 57.4684 44.8361C56.9985 44.7449 46.0879 42.6374 45.8715 32.0202C45.8715 32.0202 45.1082 24.2026 55.9049 28.7479L64.1583 32.53C64.1583 32.53 66.0123 33.8401 69.5039 33.0398C72.9955 32.2395 77.9395 31.4877 73.1407 30.4453H73.135Z" fill="url(#paint4_linear_8_2189)"/>
<path d="M150.326 55.9632C150.343 55.9176 150.406 55.9091 150.434 55.9518C150.807 56.5043 152.479 59.3637 150.813 64.2821C148.95 69.7844 146.866 71.1286 146.162 67.7253C146.094 67.3921 147.108 59.6542 147.108 59.6542C147.108 59.6542 149.87 57.1508 150.326 55.966V55.9632Z" fill="url(#paint5_linear_8_2189)"/>
<path d="M129.704 71.6485C129.704 71.6485 129.875 78.6061 129.437 79.8164C128.998 81.0268 128.346 82.4821 130.334 80.2522C132.322 78.0222 132.977 76.883 133.122 76.6894C133.267 76.4957 134.236 74.824 134.335 73.7816C134.435 72.7393 137.437 72.6168 137.437 72.6168C137.437 72.6168 141.025 72.2665 141.29 72.4602C141.555 72.6538 141.629 73.6335 141.629 73.6335C141.629 73.6335 141.603 77.8998 141.071 79.2326C140.538 80.5655 140.296 81.3401 141.361 80.3718C142.426 79.4035 144.269 77.3672 144.705 75.4762C145.14 73.5851 147.191 71.6912 144.671 70.8425C142.15 69.9938 136.511 69.3189 129.702 71.6457L129.704 71.6485Z" fill="url(#paint6_linear_8_2189)"/>
<path d="M116.29 74.1431C116.29 74.1431 105.178 82.1658 107.504 96.3202C107.504 96.3202 107.214 99.5184 115.017 111.349C115.017 111.349 116.495 113.542 114.715 112.707C112.935 111.873 110.315 111.568 110.315 111.568C110.315 111.568 109.74 111.434 111.529 113.12C113.317 114.806 116.06 122.052 113.952 125.216C113.952 125.216 112.104 127.215 114.559 125.506C117.014 123.797 118.945 122.356 118.945 122.356C118.945 122.356 121.662 120.306 121.425 121.579C121.189 122.852 120.933 125.498 119.788 126.845C118.643 128.192 124.068 124.444 124.068 124.444C124.068 124.444 126.942 122.988 128.613 118.409C128.613 118.409 129.021 116.284 129.3 117.583C129.579 118.882 129.801 120.687 129.824 121.186C129.847 121.684 129.992 121.542 130.26 121.052C130.573 120.482 131.937 116.817 131.937 116.817C131.937 116.817 133.546 110.469 131.228 109.757C128.984 109.068 124.703 109.509 123.957 109.612C123.957 109.612 119.768 110.848 114.177 103.867C108.265 96.4825 111.571 85.1305 111.571 85.1305C111.571 85.1305 113.522 78.0904 116.757 74.4535C120.007 70.8024 116.285 74.1517 116.285 74.1517L116.29 74.1431Z" fill="url(#paint7_linear_8_2189)"/>
<path d="M116.908 89.3917C116.908 89.3917 117.273 89.5739 118.29 92.3735C119.306 95.173 122.035 98.0438 122.035 98.0438C122.035 98.0438 122.579 98.4083 122.98 98.9893C123.382 99.5703 124.743 96.8818 123.98 95.6088C123.217 94.3357 123.034 91.6102 119.272 90.1378C119.272 90.1378 116.601 88.7509 116.908 89.3917Z" fill="url(#paint8_linear_8_2189)"/>
<path d="M125.464 97.4851C125.464 97.4851 125.094 101.492 120.249 104.329C120.249 104.329 116.957 105.776 119.888 106.379C122.818 106.983 121.634 106.73 126.262 106.718C126.262 106.718 130.551 106.112 131.619 106.348C132.766 106.601 132.709 107.057 133.048 106.767C133.387 106.476 134.358 105.457 134.865 104.172C135.372 102.888 135.785 102.452 135.834 101.336C135.882 100.219 136.269 96.269 135.591 98.0633C134.914 99.8575 131.992 104.54 128.235 104.54C124.479 104.54 125.478 104.861 125.897 103.611C126.35 102.261 126.333 93.7457 125.461 97.4794L125.464 97.4851Z" fill="url(#paint9_linear_8_2189)"/>
<path d="M99.9119 91.0636C99.9119 91.0636 100.137 97.5342 100.863 99.3284C101.589 101.123 104.597 104.03 104.597 104.03C104.597 104.03 105.42 104.224 104.064 102.381C102.709 100.539 100.721 94.6492 100.55 92.5417C100.379 90.4342 100.006 90.6507 99.9148 91.0636H99.9119Z" fill="url(#paint10_linear_8_2189)"/>
<path d="M107.2 129.48C107.2 129.48 105.081 144.847 99.3597 152.602C99.3597 152.602 97.0215 155.462 99.8069 153.001C102.592 150.54 106.727 145.633 108.109 141.996C109.49 138.36 109.273 133.706 108.109 130.761C108.109 130.761 107.214 127.173 107.197 129.477L107.2 129.48Z" fill="url(#paint11_linear_8_2189)"/>
<path d="M67.1706 87.9371C67.2447 88.2276 66.7577 94.6526 72.334 101.735C77.9103 108.818 82.9512 112.959 85.7137 117.903C88.4763 122.847 91.0935 124.875 92.7681 130.329C94.4427 135.783 94.6592 141.356 94.6592 141.356C94.6592 141.356 94.2405 149.145 95.3142 142.871C96.3879 136.597 99.6517 125.117 92.284 115.132C84.9163 105.147 83.8967 105.196 82.9284 104.321C81.9601 103.447 69.5487 92.4938 67.8997 86.1429C66.2508 79.7919 67.1735 87.9371 67.1735 87.9371H67.1706Z" fill="url(#paint12_linear_8_2189)"/>
<path d="M77.134 121.602C77.134 121.602 80.3323 130.183 81.4231 138.909C82.5138 147.635 81.9385 153.089 81.9385 153.089C81.9385 153.089 81.5683 156.432 83.5306 150.181C85.4928 143.93 86.9623 135.93 81.9385 128.149C76.9147 120.369 76.9888 120.394 77.134 121.605V121.602Z" fill="url(#paint13_linear_8_2189)"/>
<path d="M37.8422 100.977C37.8422 100.977 34.0117 117.603 47.756 130.912C47.756 130.912 55.6819 138.16 57.6213 139.515C59.5608 140.871 68.2385 147.903 70.7106 150.52C73.1826 153.137 75.1221 156.045 72.4564 150.907C69.7907 145.769 62.2293 138.254 61.0161 136.801C59.8029 135.349 51.8058 126.523 51.8058 126.523C51.8058 126.523 39.5425 110.816 39.0327 102.116C39.0327 102.116 38.7166 95.0131 37.8451 100.977H37.8422Z" fill="url(#paint14_linear_8_2189)"/>
<path d="M26.4508 119.736C26.4508 119.736 27.5159 127.442 32.4144 132.486C37.3129 137.53 42.4962 141.358 42.4962 141.358C42.4962 141.358 46.1815 143.345 43.3677 141.358C40.5539 139.37 30.7626 127.009 28.7291 122.84C26.6957 118.671 26.0634 114.84 26.4508 119.739V119.736Z" fill="url(#paint15_linear_8_2189)"/>
<path d="M14.0474 75.859H15.8416V84.9298H18.4048V111.079L16.0695 111.097V120.677H14.056V111.079L11.4073 111.097V84.9298H14.0474V75.859Z" fill="#3EFF25"/>
<path d="M38.5735 43.0628H40.3678V52.1336H42.9309V78.2831L40.5956 78.3006V87.8812H38.5821V78.2831L35.9335 78.3006V52.1336H38.5735V43.0628Z" fill="#3EFF25"/>
<path d="M63.042 101.811H64.797V108.846H67.3041V126.056L65.0199 126.068V131.47H63.0504V126.056L60.4597 126.068V108.846H63.042V101.811Z" fill="#3EFF25"/>
<path d="M53.1182 63.5961H54.9124V72.6668H57.4755V98.8163L55.1402 98.8339V108.414H53.1267V98.8163L50.4781 98.8339V72.6668H53.1182V63.5961Z" fill="#FF3628"/>
<path d="M25.7403 60.1739H27.5345V69.2447H30.0977V95.3942L27.7623 95.4117V104.992H25.7488V95.3942L23.1002 95.4117V69.2447H25.7403V60.1739Z" fill="#FF3628"/>
<path d="M80.4551 32.2354C82.9756 28.647 87.6296 27.3396 93.3027 27.5332C98.9691 27.7267 103.763 29.1792 103.774 29.1826C121.12 31.7432 122.429 33.4374 122.438 33.4483C130.257 40.3995 125.002 38.1322 124.958 38.1133C124.958 38.1133 116.958 38.5859 132.325 41.542C147.69 44.4982 150.285 49.7051 150.285 49.7051C150.309 49.7383 151.379 51.2651 149.684 50.4512C148.678 49.9671 146.463 50.2516 142.123 50.6133C138.105 50.9493 137.307 51.3732 136.088 49.6133C135.276 48.4435 134.93 49.4835 134.923 49.5049C134.923 49.5049 133.981 52.2933 139.326 55.1299C144.476 57.0025 144.475 60.228 144.475 60.2617C144.483 60.2852 146.254 65.468 140.71 66.7979C135.524 68.4439 126.209 69.5175 124.01 68.8086C121.84 68.1087 120.807 67.4087 120.78 67.3906C118.71 66.6103 121.054 66.1065 121.054 66.1065C121.096 66.0934 124.008 65.1861 125.343 64.4453C126.679 63.7058 123.606 64.0971 123.579 64.1006C123.549 64.1022 121.162 64.2277 118.453 64.0098C115.729 63.7908 121.634 62.4679 121.651 62.4639C121.688 62.4577 127.381 61.5002 128.577 61.3184C129.769 61.1372 128.161 60.6157 128.142 60.6094L124.762 59.6641C124.762 59.6641 120.543 58.4362 115.89 59.544C111.249 60.6489 106.03 66.8106 106.002 66.8438C104.968 68.1538 105.458 66.9717 105.458 66.9717L106.913 63.6084C106.917 63.5987 107.563 62.1223 106.785 63.0274C106.005 63.9319 103.732 65.2348 103.712 65.2461C97.8938 68.5552 93.4708 67.063 91.3262 66.0947C89.1817 65.1236 86.786 62.3613 86.1992 61.4043C85.5442 60.3392 85.6154 61.3931 85.6895 61.6836C85.7609 61.9795 83.1319 68.1656 82.6963 69.293C82.2606 70.4212 81.6399 75.4279 82.8047 78.626C83.9696 81.8272 87.6779 88.4793 88.877 90.0059C89.6601 91.0026 89.8706 91.664 89.9219 92.0029C89.9357 92.0938 89.8224 92.1413 89.7627 92.0733C88.8026 90.9451 83.7425 85.2113 82.2725 83.8379C80.6377 82.3114 79.1335 79.608 77.8975 76.7715C76.6616 73.935 76.9154 70.6255 77.0977 68.2276C77.28 65.8296 79.5837 60.7408 80.0195 59.1885C80.4561 57.6433 79.0157 59.0054 79.0029 59.0176C78.991 59.0288 75.3872 62.437 74.3721 63.4522C73.3552 64.4691 69.9124 68.3953 69.3311 69.1475C68.7501 69.8993 67.5743 71.7875 67.3691 73.667C67.1677 75.514 66.8942 75.0075 66.8848 74.9893C66.8786 75.0012 66.7014 75.2948 66.665 70.1162C66.628 64.8456 70.808 58.3765 70.8096 58.374C70.8206 58.3534 73.7574 52.8789 75.7529 50.4483C77.7518 48.0137 72.2286 50.0117 70.3369 50.1944C68.446 50.3766 61.0667 51.8292 60.2285 51.9404C59.3918 52.0512 59.7204 51.5045 64.8457 48.8877C69.9539 46.2796 75.3506 39.8084 75.3887 39.7627C75.4008 39.7439 77.9407 35.8152 80.4551 32.2354ZM123.544 54.7256C119.654 53.7317 115.188 55.0703 115.188 55.0703C115.17 55.0763 114.494 55.3149 113.055 55.9531C110.885 56.9129 111.947 56.8989 113.191 56.543C114.436 56.187 120.019 56.5059 120.019 56.5059C120.079 56.5098 126.66 56.9386 128.229 56.9131C129.803 56.8875 128.471 56.3604 128.471 56.3604C128.453 56.3475 127.671 55.7785 123.544 54.7256ZM105.578 36.7813C104.018 35.1956 104.047 36.534 104.408 36.9697C104.77 37.4055 105.905 38.2254 104.294 38.0176C103.526 37.9185 101.176 38.3947 101.152 38.3994H101.155L93.5654 40.9258C93.5322 40.9386 91.74 41.6323 94.748 41.4151C97.7835 41.1959 99.8736 41.5779 100.711 42.6514C101.548 43.725 101.948 44.8158 105.456 45.0322C108.948 45.2476 112.493 45.2316 112.527 45.2315C112.558 45.2298 116.445 45.017 114.183 46.1231C111.929 47.2245 110.355 48.3399 110.329 48.3584C110.329 48.3584 108.857 49.6688 112.673 47.96C116.489 46.2512 119.636 45.1602 120.853 45.1602C122.067 45.1602 126.197 45.2341 126.215 45.2344C126.237 45.234 128.264 45.1917 125.625 44.1807C122.971 43.1642 119.853 43.1268 118.161 41.4727C116.484 39.8323 115.764 38.1914 115.752 38.1631C115.752 38.1631 114.815 36.9641 115.105 38.3994C115.396 39.8347 115.705 41.4179 111.016 40.1992C109.466 39.6838 107.025 38.2508 105.578 36.7813Z" fill="url(#paint16_linear_8_2189)"/>
<path d="M212.081 54.1859L230.966 82.666C232.184 84.5444 233.454 85.9658 234.773 86.9304C236.093 87.895 237.54 88.4026 239.114 88.4534V89.2149H230.89C230.331 89.2149 229.291 89.1895 227.768 89.1388C226.245 89.088 224.493 88.8595 222.513 88.4534C220.533 88.0473 218.528 87.3112 216.497 86.2451C214.518 85.179 212.792 83.6306 211.319 81.5999C210.913 81.0415 210.38 80.28 209.72 79.3154C209.06 78.3001 208.324 77.1832 207.512 75.9648C206.75 74.6956 205.963 73.4265 205.151 72.1573C204.339 70.8881 203.603 69.7205 202.943 68.6544C202.283 67.5883 201.75 66.7253 201.344 66.0653C200.937 65.3546 200.734 64.9992 200.734 64.9992L212.081 54.1859ZM229.291 36.443L206.293 64.2377L200.734 64.9992L221.676 36.443H229.291ZM234.697 35.9099V36.5953H234.393C232.717 36.5953 231.144 36.9506 229.671 37.6614C228.25 38.3213 227.032 39.2097 226.016 40.3266L218.934 40.1743C219.543 39.3113 219.645 38.499 219.239 37.7375C218.884 36.976 218.173 36.5953 217.107 36.5953H216.345V35.9099H234.393H234.697ZM198.298 35.9099V89.2149H182.687V35.9099H198.298ZM182.915 83.656V89.2149H176.823V88.4534C176.925 88.4534 177.103 88.4534 177.356 88.4534C177.61 88.4534 177.763 88.4534 177.813 88.4534C179.133 88.4534 180.25 87.9965 181.164 87.0827C182.128 86.1181 182.636 84.9759 182.687 83.656H182.915ZM182.915 41.4689H182.687C182.636 40.1489 182.128 39.0321 181.164 38.1183C180.25 37.1537 179.133 36.6714 177.813 36.6714C177.763 36.6714 177.61 36.6714 177.356 36.6714C177.103 36.6714 176.925 36.6714 176.823 36.6714V35.9099H182.915V41.4689ZM198.069 83.656H198.298C198.348 84.9759 198.831 86.1181 199.744 87.0827C200.709 87.9965 201.851 88.4534 203.171 88.4534C203.273 88.4534 203.45 88.4534 203.704 88.4534C203.958 88.4534 204.11 88.4534 204.161 88.4534V89.2149H198.069V83.656ZM198.069 41.4689V35.9099H204.161V36.6714C204.11 36.6714 203.958 36.6714 203.704 36.6714C203.45 36.6714 203.273 36.6714 203.171 36.6714C201.851 36.6714 200.709 37.1537 199.744 38.1183C198.831 39.0321 198.348 40.1489 198.298 41.4689H198.069ZM299.137 67.8929V80.4577C297.919 81.9807 295.965 83.5037 293.274 85.0267C290.583 86.5497 287.385 87.8188 283.679 88.8342C280.024 89.7987 276.064 90.281 271.8 90.281C265.809 90.281 260.58 89.1895 256.113 87.0066C251.696 84.7728 248.244 81.5745 245.756 77.4117C243.32 73.2488 242.101 68.2483 242.101 62.4101C242.101 56.6735 243.294 51.7491 245.68 47.637C248.117 43.5249 251.62 40.3774 256.189 38.1944C260.758 35.9607 266.215 34.8438 272.561 34.8438C275.353 34.8438 278.196 35.0215 281.09 35.3769C284.034 35.6815 286.75 36.0876 289.238 36.5953C291.776 37.1029 293.782 37.6867 295.254 38.3467L294.492 52.8914H293.807C292.741 49.0839 291.269 46.1648 289.39 44.1341C287.512 42.0527 285.43 40.6312 283.146 39.8697C280.912 39.0574 278.653 38.6513 276.369 38.6513C272.307 38.6513 268.982 39.6159 266.393 41.545C263.804 43.4741 261.9 46.2663 260.682 49.9215C259.463 53.5259 258.854 57.9426 258.854 63.1716C258.854 67.9437 259.362 72.0812 260.377 75.5841C261.443 79.087 263.042 81.7776 265.175 83.656C267.358 85.5343 270.124 86.4735 273.475 86.4735C275.15 86.4735 276.749 86.1689 278.272 85.5597C279.795 84.9505 281.039 84.0367 282.004 82.8183C283.019 81.5999 283.527 80.1023 283.527 78.3255L283.603 67.8929C283.603 65.6084 282.308 64.4662 279.719 64.4662H278.501V63.7047H304.087V64.4662H302.945C300.305 64.4662 299.036 65.6084 299.137 67.8929ZM365.87 66.9791L367.697 80.8384C366.682 82.5137 365.261 84.0621 363.433 85.4836C361.656 86.905 359.346 88.0727 356.503 88.9865C353.711 89.8495 350.31 90.281 346.299 90.281C339.497 90.2302 333.582 89.1388 328.556 87.0066C323.581 84.8236 319.748 81.6761 317.058 77.564C314.367 73.4519 313.022 68.426 313.022 62.4863C313.022 56.6989 314.342 51.7491 316.982 47.637C319.621 43.4741 323.429 40.3012 328.404 38.1183C333.379 35.9353 339.37 34.8438 346.375 34.8438C350.64 34.8438 354.422 35.1992 357.722 35.9099C361.072 36.6206 363.814 37.4329 365.946 38.3467L365.185 52.8914H364.499C362.976 47.5101 360.768 43.8041 357.874 41.7735C354.98 39.692 351.579 38.6513 347.67 38.6513C343.913 38.6513 340.69 39.5905 337.999 41.4689C335.359 43.3472 333.328 46.0379 331.907 49.5408C330.486 53.0437 329.775 57.2827 329.775 62.2578C329.775 67.2329 330.435 71.5227 331.755 75.1272C333.075 78.6808 334.953 81.4476 337.39 83.4275C339.877 85.3566 342.847 86.372 346.299 86.4735C350.411 86.4735 353.686 85.8643 356.123 84.6459C358.559 83.4275 360.463 81.3968 361.834 78.5539C363.205 75.6602 364.347 71.8019 365.261 66.9791H365.87Z" fill="url(#paint17_linear_8_2189)"/>
<path d="M192.289 101.932V125.785H185.273V101.932H192.289ZM200.399 101.795V103.506H177.163V101.795H200.399ZM200.399 103.404V108.229L200.057 108.195V107.955C200.057 106.586 199.669 105.514 198.894 104.738C198.118 103.94 197.034 103.529 195.643 103.506V103.404H200.399ZM200.399 101.179V102.172L196.224 101.795C196.726 101.795 197.251 101.761 197.799 101.693C198.369 101.624 198.894 101.544 199.373 101.453C199.852 101.362 200.194 101.271 200.399 101.179ZM185.376 123.287V125.785H182.638V125.443C182.638 125.443 182.707 125.443 182.843 125.443C183.003 125.443 183.083 125.443 183.083 125.443C183.676 125.443 184.178 125.238 184.589 124.827C185.022 124.393 185.25 123.88 185.273 123.287H185.376ZM192.186 123.287H192.289C192.312 123.88 192.528 124.393 192.939 124.827C193.373 125.238 193.886 125.443 194.479 125.443C194.479 125.443 194.547 125.443 194.684 125.443C194.844 125.443 194.924 125.443 194.924 125.443V125.785H192.186V123.287ZM181.919 103.404V103.506C180.528 103.529 179.444 103.94 178.668 104.738C177.893 105.514 177.505 106.586 177.505 107.955V108.195L177.163 108.229V103.404H181.919ZM177.163 101.179C177.391 101.271 177.733 101.362 178.189 101.453C178.668 101.544 179.193 101.624 179.763 101.693C180.334 101.761 180.859 101.795 181.338 101.795L177.163 102.172V101.179ZM213.549 101.83H217.69C218.717 101.83 219.766 101.921 220.838 102.103C221.911 102.286 222.892 102.617 223.782 103.096C224.671 103.552 225.39 104.202 225.938 105.046C226.485 105.891 226.759 106.974 226.759 108.298C226.759 109.164 226.599 110.066 226.28 111.001C225.96 111.914 225.401 112.724 224.603 113.431C223.827 114.115 222.721 114.572 221.283 114.8C222.242 115.074 223.074 115.541 223.782 116.203C224.489 116.864 225.048 117.538 225.458 118.222C225.504 118.29 225.618 118.484 225.801 118.804C225.983 119.123 226.211 119.522 226.485 120.002C226.782 120.458 227.09 120.937 227.409 121.439C227.729 121.941 228.048 122.408 228.367 122.842C228.892 123.549 229.348 124.085 229.736 124.45C230.124 124.815 230.512 125.066 230.9 125.203C231.31 125.34 231.79 125.42 232.337 125.443V125.785H228.059C226.69 125.785 225.424 125.705 224.261 125.546C223.097 125.386 222.048 125.032 221.112 124.485C220.2 123.937 219.39 123.07 218.682 121.884C218.431 121.473 218.226 121.062 218.066 120.652C217.907 120.241 217.77 119.842 217.656 119.454C217.542 119.066 217.439 118.701 217.348 118.359C217.279 117.994 217.211 117.652 217.142 117.332C217.074 116.99 216.994 116.671 216.903 116.374C216.675 115.553 216.401 114.994 216.082 114.697C215.762 114.4 215.443 114.195 215.123 114.081V113.739C215.215 113.739 215.317 113.739 215.431 113.739C215.545 113.739 215.625 113.739 215.671 113.739C216.31 113.739 216.88 113.591 217.382 113.294C217.884 112.997 218.306 112.541 218.648 111.925C218.99 111.309 219.219 110.511 219.333 109.53C219.355 109.347 219.378 109.153 219.401 108.948C219.424 108.72 219.424 108.446 219.401 108.126C219.31 106.438 218.888 105.263 218.135 104.602C217.405 103.94 216.526 103.609 215.5 103.609C215.386 103.609 215.237 103.609 215.055 103.609C214.872 103.609 214.678 103.609 214.473 103.609C214.268 103.609 214.074 103.609 213.891 103.609C213.891 103.609 213.857 103.461 213.789 103.164C213.743 102.868 213.686 102.571 213.618 102.274C213.572 101.978 213.549 101.83 213.549 101.83ZM213.994 101.83V125.785H206.944V101.83H213.994ZM207.047 123.287V125.785H204.309V125.443C204.355 125.443 204.435 125.443 204.549 125.443C204.663 125.443 204.731 125.443 204.754 125.443C205.347 125.443 205.849 125.238 206.26 124.827C206.693 124.393 206.921 123.88 206.944 123.287H207.047ZM207.047 104.328H206.944C206.921 103.735 206.693 103.233 206.26 102.822C205.849 102.388 205.347 102.172 204.754 102.172C204.731 102.172 204.663 102.172 204.549 102.172C204.435 102.172 204.355 102.172 204.309 102.172V101.83H207.047V104.328ZM213.891 123.287H213.994C213.994 123.88 214.211 124.393 214.644 124.827C215.078 125.238 215.591 125.443 216.184 125.443C216.23 125.443 216.298 125.443 216.39 125.443C216.504 125.443 216.572 125.443 216.595 125.443V125.785H213.891V123.287ZM244.656 101.008L256.497 125.58H248.284L241.679 109.769L244.656 101.008ZM237.298 123.287C237.093 123.743 237.047 124.131 237.161 124.45C237.275 124.77 237.469 125.021 237.743 125.203C238.04 125.363 238.325 125.443 238.599 125.443H238.907V125.785H231.275V125.443C231.275 125.443 231.332 125.443 231.446 125.443C231.538 125.443 231.583 125.443 231.583 125.443C232.108 125.443 232.644 125.283 233.192 124.964C233.762 124.622 234.23 124.063 234.595 123.287H237.298ZM244.656 101.008V106.347L236.237 125.682H233.465L242.397 106.107C242.511 105.902 242.66 105.583 242.842 105.149C243.048 104.693 243.253 104.202 243.458 103.678C243.686 103.153 243.88 102.651 244.04 102.172C244.223 101.693 244.325 101.305 244.348 101.008H244.656ZM247.462 118.393V120.104H237.777V118.393H247.462ZM247.291 123.287H255.368C255.755 124.063 256.223 124.622 256.771 124.964C257.318 125.283 257.854 125.443 258.379 125.443C258.379 125.443 258.425 125.443 258.516 125.443C258.607 125.443 258.653 125.443 258.653 125.443V125.785H245.683V125.443H245.991C246.447 125.443 246.846 125.26 247.188 124.895C247.554 124.507 247.588 123.971 247.291 123.287ZM273.667 101.83C276.519 101.83 278.96 102.309 280.991 103.267C283.044 104.202 284.607 105.571 285.679 107.374C286.774 109.153 287.322 111.298 287.322 113.807C287.322 116.317 286.774 118.473 285.679 120.275C284.607 122.055 283.044 123.424 280.991 124.382C278.96 125.317 276.519 125.785 273.667 125.785H264.975L264.94 124.074C266.036 124.074 267.017 124.074 267.884 124.074C268.751 124.074 269.503 124.074 270.142 124.074C270.781 124.074 271.306 124.074 271.716 124.074C272.15 124.074 272.469 124.074 272.675 124.074C272.88 124.074 272.983 124.074 272.983 124.074C274.42 124.074 275.641 123.663 276.644 122.842C277.671 122.021 278.447 120.846 278.972 119.317C279.519 117.788 279.793 115.952 279.793 113.807C279.793 111.663 279.519 109.826 278.972 108.298C278.447 106.769 277.671 105.594 276.644 104.773C275.641 103.951 274.42 103.541 272.983 103.541C272.983 103.541 272.869 103.541 272.64 103.541C272.435 103.541 272.104 103.541 271.648 103.541C271.215 103.541 270.667 103.541 270.005 103.541C269.344 103.541 268.557 103.541 267.644 103.541C266.754 103.541 265.739 103.541 264.598 103.541V101.83H273.667ZM270.348 101.83V125.785H263.332V101.83H270.348ZM263.435 123.287V125.785H260.697V125.443C260.697 125.443 260.765 125.443 260.902 125.443C261.062 125.443 261.142 125.443 261.142 125.443C261.735 125.443 262.237 125.238 262.648 124.827C263.081 124.393 263.309 123.88 263.332 123.287H263.435ZM263.435 104.328H263.332C263.332 103.735 263.115 103.233 262.682 102.822C262.248 102.388 261.735 102.172 261.142 102.172C261.142 102.172 261.073 102.172 260.936 102.172C260.8 102.172 260.731 102.172 260.731 102.172L260.697 101.83H263.435V104.328ZM300.883 101.83V125.785H293.867V101.83H300.883ZM293.97 123.287V125.785H291.232V125.443C291.232 125.443 291.301 125.443 291.438 125.443C291.597 125.443 291.677 125.443 291.677 125.443C292.27 125.443 292.772 125.238 293.183 124.827C293.616 124.393 293.845 123.88 293.867 123.287H293.97ZM293.97 104.328H293.867C293.845 103.735 293.616 103.233 293.183 102.822C292.772 102.388 292.27 102.172 291.677 102.172C291.677 102.172 291.597 102.172 291.438 102.172C291.301 102.172 291.232 102.172 291.232 102.172V101.83H293.97V104.328ZM300.78 123.287H300.883C300.906 123.88 301.122 124.393 301.533 124.827C301.967 125.238 302.48 125.443 303.073 125.443C303.073 125.443 303.142 125.443 303.278 125.443C303.415 125.443 303.495 125.443 303.518 125.443V125.785H300.78V123.287ZM300.78 104.328V101.83H303.518V102.172C303.495 102.172 303.415 102.172 303.278 102.172C303.142 102.172 303.073 102.172 303.073 102.172C302.48 102.172 301.967 102.388 301.533 102.822C301.122 103.233 300.906 103.735 300.883 104.328H300.78ZM310.224 101.316L333.324 121.85L333.769 126.264L310.669 105.765L310.224 101.316ZM310.43 123.355V125.785H307.589V125.443C307.589 125.443 307.692 125.443 307.897 125.443C308.103 125.443 308.217 125.443 308.24 125.443C308.81 125.443 309.3 125.238 309.711 124.827C310.122 124.416 310.327 123.926 310.327 123.355H310.43ZM317.377 123.355C317.377 123.926 317.582 124.416 317.993 124.827C318.404 125.238 318.894 125.443 319.464 125.443C319.487 125.443 319.601 125.443 319.807 125.443C320.012 125.443 320.115 125.443 320.115 125.443V125.785H317.274V123.355H317.377ZM310.224 101.316L317.343 108.708L317.377 125.785H310.327V105.594C310.327 104.248 310.247 103.198 310.088 102.446C309.951 101.693 309.882 101.316 309.882 101.316H310.224ZM333.632 101.83V121.884C333.632 122.819 333.667 123.618 333.735 124.279C333.826 124.941 333.906 125.443 333.975 125.785C334.043 126.104 334.077 126.264 334.077 126.264H333.769L326.617 118.325V101.83H333.632ZM336.37 101.83V102.172C336.37 102.172 336.268 102.172 336.062 102.172C335.857 102.172 335.754 102.172 335.754 102.172C335.184 102.172 334.693 102.377 334.283 102.788C333.872 103.176 333.655 103.666 333.632 104.259H333.53V101.83H336.37ZM323.845 101.83H326.685V104.259H326.617C326.594 103.666 326.377 103.176 325.967 102.788C325.579 102.377 325.088 102.172 324.495 102.172C324.495 102.172 324.392 102.172 324.187 102.172C323.982 102.172 323.868 102.172 323.845 102.172V101.83ZM365.774 116.203V121.85C365.227 122.534 364.348 123.218 363.139 123.903C361.93 124.587 360.493 125.158 358.827 125.614C357.185 126.047 355.405 126.264 353.489 126.264C350.796 126.264 348.447 125.774 346.439 124.793C344.454 123.789 342.903 122.351 341.785 120.481C340.689 118.61 340.142 116.363 340.142 113.739C340.142 111.161 340.678 108.948 341.75 107.1C342.845 105.252 344.42 103.837 346.473 102.856C348.526 101.852 350.979 101.35 353.831 101.35C355.086 101.35 356.363 101.43 357.664 101.59C358.987 101.727 360.208 101.909 361.325 102.138C362.466 102.366 363.367 102.628 364.029 102.925L363.687 109.461H363.379C362.9 107.75 362.238 106.438 361.394 105.526C360.55 104.59 359.614 103.951 358.588 103.609C357.584 103.244 356.569 103.062 355.542 103.062C353.717 103.062 352.222 103.495 351.059 104.362C349.895 105.229 349.04 106.484 348.492 108.126C347.945 109.746 347.671 111.731 347.671 114.081C347.671 116.226 347.899 118.085 348.355 119.659C348.834 121.234 349.553 122.443 350.511 123.287C351.492 124.131 352.736 124.553 354.241 124.553C354.994 124.553 355.713 124.416 356.397 124.142C357.082 123.869 357.641 123.458 358.074 122.91C358.531 122.363 358.759 121.69 358.759 120.891L358.793 116.203C358.793 115.176 358.211 114.663 357.048 114.663H356.5V114.321H367.999V114.663H367.485C366.299 114.663 365.729 115.176 365.774 116.203Z" fill="url(#paint18_linear_8_2189)"/>
<defs>
<linearGradient id="paint0_linear_8_2189" x1="11.9741" y1="97.0617" x2="11.9741" y2="43.8508" gradientUnits="userSpaceOnUse">
<stop stop-color="#80590E"/>
<stop offset="0.1102" stop-color="#976D1D"/>
<stop offset="0.34" stop-color="#D2A243"/>
<stop offset="0.5027" stop-color="#FFCA61"/>
<stop offset="1" stop-color="#80590E"/>
</linearGradient>
<linearGradient id="paint1_linear_8_2189" x1="20.9965" y1="49.6261" x2="20.9965" y2="23.0133" gradientUnits="userSpaceOnUse">
<stop stop-color="#80590E"/>
<stop offset="0.1102" stop-color="#976D1D"/>
<stop offset="0.34" stop-color="#D2A243"/>
<stop offset="0.5027" stop-color="#FFCA61"/>
<stop offset="1" stop-color="#80590E"/>
</linearGradient>
<linearGradient id="paint2_linear_8_2189" x1="58.3056" y1="22.5501" x2="58.3056" y2="8.38858" gradientUnits="userSpaceOnUse">
<stop stop-color="#80590E"/>
<stop offset="0.1102" stop-color="#976D1D"/>
<stop offset="0.34" stop-color="#D2A243"/>
<stop offset="0.5027" stop-color="#FFCA61"/>
<stop offset="1" stop-color="#80590E"/>
</linearGradient>
<linearGradient id="paint3_linear_8_2189" x1="86.0287" y1="25.4826" x2="86.0287" y2="0.000185302" gradientUnits="userSpaceOnUse">
<stop stop-color="#80590E"/>
<stop offset="0.1102" stop-color="#976D1D"/>
<stop offset="0.34" stop-color="#D2A243"/>
<stop offset="0.5027" stop-color="#FFCA61"/>
<stop offset="1" stop-color="#80590E"/>
</linearGradient>
<linearGradient id="paint4_linear_8_2189" x1="58.1197" y1="45.2214" x2="58.1197" y2="22.454" gradientUnits="userSpaceOnUse">
<stop stop-color="#80590E"/>
<stop offset="0.1102" stop-color="#976D1D"/>
<stop offset="0.34" stop-color="#D2A243"/>
<stop offset="0.5027" stop-color="#FFCA61"/>
<stop offset="1" stop-color="#80590E"/>
</linearGradient>
<linearGradient id="paint5_linear_8_2189" x1="148.849" y1="69.5831" x2="148.849" y2="55.9241" gradientUnits="userSpaceOnUse">
<stop stop-color="#80590E"/>
<stop offset="0.1102" stop-color="#976D1D"/>
<stop offset="0.34" stop-color="#D2A243"/>
<stop offset="0.5027" stop-color="#FFCA61"/>
<stop offset="1" stop-color="#80590E"/>
</linearGradient>
<linearGradient id="paint6_linear_8_2189" x1="137.439" y1="81.4135" x2="137.439" y2="70.0529" gradientUnits="userSpaceOnUse">
<stop stop-color="#80590E"/>
<stop offset="0.1102" stop-color="#976D1D"/>
<stop offset="0.34" stop-color="#D2A243"/>
<stop offset="0.5027" stop-color="#FFCA61"/>
<stop offset="1" stop-color="#80590E"/>
</linearGradient>
<linearGradient id="paint7_linear_8_2189" x1="119.833" y1="127.137" x2="119.833" y2="72.7491" gradientUnits="userSpaceOnUse">
<stop stop-color="#80590E"/>
<stop offset="0.1102" stop-color="#976D1D"/>
<stop offset="0.34" stop-color="#D2A243"/>
<stop offset="0.5027" stop-color="#FFCA61"/>
<stop offset="1" stop-color="#80590E"/>
</linearGradient>
<linearGradient id="paint8_linear_8_2189" x1="120.546" y1="99.0703" x2="120.546" y2="89.2226" gradientUnits="userSpaceOnUse">
<stop stop-color="#80590E"/>
<stop offset="0.1102" stop-color="#976D1D"/>
<stop offset="0.34" stop-color="#D2A243"/>
<stop offset="0.5027" stop-color="#FFCA61"/>
<stop offset="1" stop-color="#80590E"/>
</linearGradient>
<linearGradient id="paint9_linear_8_2189" x1="127.33" y1="106.86" x2="127.33" y2="96.5405" gradientUnits="userSpaceOnUse">
<stop stop-color="#80590E"/>
<stop offset="0.1102" stop-color="#976D1D"/>
<stop offset="0.34" stop-color="#D2A243"/>
<stop offset="0.5027" stop-color="#FFCA61"/>
<stop offset="1" stop-color="#80590E"/>
</linearGradient>
<linearGradient id="paint10_linear_8_2189" x1="102.378" y1="104.036" x2="102.378" y2="90.7934" gradientUnits="userSpaceOnUse">
<stop stop-color="#80590E"/>
<stop offset="0.1102" stop-color="#976D1D"/>
<stop offset="0.34" stop-color="#D2A243"/>
<stop offset="0.5027" stop-color="#FFCA61"/>
<stop offset="1" stop-color="#80590E"/>
</linearGradient>
<linearGradient id="paint11_linear_8_2189" x1="103.753" y1="154" x2="103.753" y2="128.705" gradientUnits="userSpaceOnUse">
<stop stop-color="#80590E"/>
<stop offset="0.1102" stop-color="#976D1D"/>
<stop offset="0.34" stop-color="#D2A243"/>
<stop offset="0.5027" stop-color="#FFCA61"/>
<stop offset="1" stop-color="#80590E"/>
</linearGradient>
<linearGradient id="paint12_linear_8_2189" x1="81.9411" y1="145.315" x2="81.9411" y2="83.721" gradientUnits="userSpaceOnUse">
<stop stop-color="#80590E"/>
<stop offset="0.1102" stop-color="#976D1D"/>
<stop offset="0.34" stop-color="#D2A243"/>
<stop offset="0.5027" stop-color="#FFCA61"/>
<stop offset="1" stop-color="#80590E"/>
</linearGradient>
<linearGradient id="paint13_linear_8_2189" x1="81.2225" y1="153.982" x2="81.2225" y2="121.012" gradientUnits="userSpaceOnUse">
<stop stop-color="#80590E"/>
<stop offset="0.1102" stop-color="#976D1D"/>
<stop offset="0.34" stop-color="#D2A243"/>
<stop offset="0.5027" stop-color="#FFCA61"/>
<stop offset="1" stop-color="#80590E"/>
</linearGradient>
<linearGradient id="paint14_linear_8_2189" x1="55.5455" y1="153.744" x2="55.5455" y2="98.5928" gradientUnits="userSpaceOnUse">
<stop stop-color="#80590E"/>
<stop offset="0.1102" stop-color="#976D1D"/>
<stop offset="0.34" stop-color="#D2A243"/>
<stop offset="0.5027" stop-color="#FFCA61"/>
<stop offset="1" stop-color="#80590E"/>
</linearGradient>
<linearGradient id="paint15_linear_8_2189" x1="35.3849" y1="142.241" x2="35.3849" y2="117.439" gradientUnits="userSpaceOnUse">
<stop stop-color="#80590E"/>
<stop offset="0.1102" stop-color="#976D1D"/>
<stop offset="0.34" stop-color="#D2A243"/>
<stop offset="0.5027" stop-color="#FFCA61"/>
<stop offset="1" stop-color="#80590E"/>
</linearGradient>
<linearGradient id="paint16_linear_8_2189" x1="105.259" y1="92.1058" x2="105.259" y2="27.5152" gradientUnits="userSpaceOnUse">
<stop stop-color="#80590E"/>
<stop offset="0.1102" stop-color="#976D1D"/>
<stop offset="0.34" stop-color="#D2A243"/>
<stop offset="0.5027" stop-color="#FFCA61"/>
<stop offset="1" stop-color="#80590E"/>
</linearGradient>
<linearGradient id="paint17_linear_8_2189" x1="273.042" y1="118.215" x2="273.042" y2="15.2157" gradientUnits="userSpaceOnUse">
<stop stop-color="#80590E"/>
<stop offset="0.1102" stop-color="#976D1D"/>
<stop offset="0.34" stop-color="#D2A243"/>
<stop offset="0.5027" stop-color="#FFCA61"/>
<stop offset="1" stop-color="#80590E"/>
</linearGradient>
<linearGradient id="paint18_linear_8_2189" x1="272.823" y1="138.785" x2="272.823" y2="92.7854" gradientUnits="userSpaceOnUse">
<stop stop-color="#80590E"/>
<stop offset="0.1102" stop-color="#976D1D"/>
<stop offset="0.34" stop-color="#D2A243"/>
<stop offset="0.5027" stop-color="#FFCA61"/>
<stop offset="1" stop-color="#80590E"/>
</linearGradient>
</defs>
</svg>
